<?xml version="1.0" encoding="UTF-8"?>
<!DOCTYPE svg PUBLIC "-//W3C//DTD SVG 1.1//EN" "http://www.w3.org/Graphics/SVG/1.1/DTD/svg11.dtd">
<svg xmlns="http://www.w3.org/2000/svg" version="1.1" width="501px" height="501px" style="shape-rendering:geometricPrecision; text-rendering:geometricPrecision; image-rendering:optimizeQuality; fill-rule:evenodd; clip-rule:evenodd" xmlns:xlink="http://www.w3.org/1999/xlink">
<g><path style="opacity:0.995" fill="#1e3055" d="M 98.5,-0.5 C 199.5,-0.5 300.5,-0.5 401.5,-0.5C 449.851,4.60203 481.685,30.2687 497,76.5C 498.293,82.6165 499.46,88.6165 500.5,94.5C 500.5,198.5 500.5,302.5 500.5,406.5C 495.07,448.105 473.07,477.271 434.5,494C 426.537,496.822 418.537,498.988 410.5,500.5C 303.167,500.5 195.833,500.5 88.5,500.5C 37.8038,490.138 8.13711,459.471 -0.5,408.5C -0.5,302.833 -0.5,197.167 -0.5,91.5C 10.0159,36.6511 43.0159,5.98445 98.5,-0.5 Z"/></g>
<g><path style="opacity:1" fill="#74cad7" d="M 144.5,263.5 C 129.188,288.777 114.355,314.444 100,340.5C 96.4451,349.496 94.9451,358.829 95.5,368.5C 75.9355,336.386 57.1022,303.719 39,270.5C 32.722,255.011 33.0553,239.678 40,224.5C 61.6667,187.167 83.3333,149.833 105,112.5C 113.823,102.004 124.99,95.504 138.5,93C 173.5,92.3333 208.5,92.3333 243.5,93C 210.6,149.978 177.6,206.811 144.5,263.5 Z"/></g>
<g><path style="opacity:1" fill="#2a447f" d="M 405.5,133.5 C 404.65,142.234 402.816,150.9 400,159.5C 385.645,185.556 370.812,211.223 355.5,236.5C 358.034,225.268 355.034,215.768 346.5,208C 344.112,206.139 341.446,204.806 338.5,204C 306.881,202.696 275.214,202.029 243.5,202C 259.288,174.253 275.455,146.753 292,119.5C 318.035,90.6344 348.202,85.1344 382.5,103C 392.462,111.417 400.128,121.584 405.5,133.5 Z"/></g>
<g><path style="opacity:1" fill="#3b5ea9" d="M 405.5,133.5 C 424.841,166.179 443.675,199.179 462,232.5C 465.838,247.065 465.171,261.398 460,275.5C 438.424,314.325 416.091,352.659 393,390.5C 384.252,400.125 373.418,405.959 360.5,408C 325.833,408.667 291.167,408.667 256.5,408C 289.653,350.852 322.653,293.686 355.5,236.5C 370.812,211.223 385.645,185.556 400,159.5C 402.816,150.9 404.65,142.234 405.5,133.5 Z"/></g>
<g><path style="opacity:1" fill="#4ea5b2" d="M 144.5,263.5 C 141.902,276.541 145.902,287.041 156.5,295C 158.909,296.707 161.575,297.54 164.5,297.5C 194.833,298.167 225.167,298.833 255.5,299.5C 240.345,325.806 225.178,352.139 210,378.5C 189.125,404.125 162.625,412.958 130.5,405C 113.528,397.863 101.861,385.696 95.5,368.5C 94.9451,358.829 96.4451,349.496 100,340.5C 114.355,314.444 129.188,288.777 144.5,263.5 Z"/></g>
<g><path style="opacity:1" fill="#2a4e6d" d="M 164.5,297.5 C 195.174,297.167 225.841,297.5 256.5,298.5C 256.376,299.107 256.043,299.44 255.5,299.5C 225.167,298.833 194.833,298.167 164.5,297.5 Z"/></g>
</svg>
